<svg xmlns="http://www.w3.org/2000/svg" xmlns:svgjs="http://svgjs.com/svgjs" xmlns:xlink="http://www.w3.org/1999/xlink" width="288" height="288"><svg xmlns="http://www.w3.org/2000/svg" xmlns:xlink="http://www.w3.org/1999/xlink" width="288" height="288" enable-background="new 0 0 180.7 193.5" viewBox="0 0 180.7 193.5"><defs><rect id="a" width="179.2" height="193.5" x="1.5" fill="#000" class="color000 svgShape"/></defs><defs><rect id="b" width="179.2" height="193.5" x="1.5" fill="#000" class="color000 svgShape"/></defs><clipPath id="c"><use overflow="visible" xlink:href="#b"/></clipPath><path fill="#4796dc" fill-rule="evenodd" d="M-209.7,127.7l-51,29.1		c-4,2.3-8.9,2.3-12.9,0l-51-29.1c-2.1-1.2-3.7-2.9-4.9-4.9c-1.2-2-1.8-4.3-1.8-6.7V58.3c0-2.4,0.6-4.7,1.8-6.7
		c1.2-2,2.8-3.7,4.9-4.9l51-29.1c4-2.3,8.9-2.3,12.9,0l51,29.1c2.1,1.2,3.7,2.9,4.9,4.9c1.2,2,1.8,4.3,1.8,6.7v57.8
		c0,2.4-0.6,4.7-1.8,6.7C-206,124.8-207.7,126.5-209.7,127.7z" class="color47DCA8 svgShape" clip-path="url(#c)" clip-rule="evenodd"/><defs><rect id="d" width="131.6" height="147.5" x="19" y="12.7" fill="#000" class="color000 svgShape"/></defs><g class="color000 svgShape"><defs><rect id="e" width="131.6" height="145.9" x="19" y="14.3" fill="#000" class="color000 svgShape"/></defs><clipPath id="f"><use overflow="visible" xlink:href="#e"/></clipPath><path fill="#4796dc" fill-rule="evenodd" d="M-120.2,129.1l-51,29.1
		c-4.5,2.6-10,2.6-14.5,0l-51-29.1c-2.3-1.3-4.2-3.2-5.5-5.5c-1.3-2.2-2-4.8-2-7.5V58.3c0-2.7,0.7-5.3,2-7.5
		c1.3-2.2,3.2-4.1,5.5-5.5l51-29.1c4.5-2.6,10-2.6,14.5,0l51,29.1c2.3,1.3,4.2,3.2,5.5,5.5c1.3,2.2,2,4.8,2,7.5v57.8
		c0,2.7-0.7,5.3-2,7.5C-116,125.9-117.8,127.8-120.2,129.1z" class="color47DCA8 svgShape" clip-path="url(#f)" clip-rule="evenodd"/></g><g class="color000 svgShape"><defs><path id="g" fill="#000" d="M78.3,17.6c4-2.3,8.9-2.3,12.9,0c12.2,7,38.6,22.1,51,29.1c4.1,2.4,6.7,6.8,6.7,11.6c0,14.1,0,43.7,0,57.8
			c0,4.8-2.6,9.2-6.7,11.6c-12.4,7.1-38.8,22.2-51,29.1c-4,2.3-8.9,2.3-12.9,0c-12.2-7-38.6-22.1-51-29.1c-4.1-2.4-6.7-6.8-6.7-11.6
			c0-14.1,0-43.7,0-57.8c0-4.8,2.6-9.2,6.7-11.6C39.7,39.6,66.1,24.6,78.3,17.6z" class="color000 svgShape"/></defs><clipPath id="h"><use overflow="visible" xlink:href="#g"/></clipPath><rect width="144.3" height="158.6" x="12.6" y="7.9" fill="#4796dc" class="color47DCA8 svgShape" clip-path="url(#h)"/></g></svg></svg>